<mxfile host="app.diagrams.net" modified="2024-05-21T14:49:55.315Z" agent="Mozilla/5.0 (Windows NT 10.0; Win64; x64) AppleWebKit/537.36 (KHTML, like Gecko) Chrome/125.0.0.0 Safari/537.36 Edg/125.0.0.0" etag="0X6T4WY67XsQ2BqjJHRY" version="24.4.4" type="github">
  <diagram name="Trang-1" id="vZLTAHOeBasrcoofTLSg">
    <mxGraphModel dx="1386" dy="759" grid="1" gridSize="10" guides="1" tooltips="1" connect="1" arrows="1" fold="1" page="1" pageScale="1" pageWidth="827" pageHeight="1169" math="0" shadow="0">
      <root>
        <mxCell id="0" />
        <mxCell id="1" parent="0" />
        <mxCell id="WPsoNhH3rO8TYxFdxuuU-9" style="edgeStyle=orthogonalEdgeStyle;rounded=0;orthogonalLoop=1;jettySize=auto;html=1;exitX=0.5;exitY=0;exitDx=0;exitDy=0;entryX=0.5;entryY=0;entryDx=0;entryDy=0;" edge="1" parent="1" source="WPsoNhH3rO8TYxFdxuuU-1" target="WPsoNhH3rO8TYxFdxuuU-2">
          <mxGeometry relative="1" as="geometry" />
        </mxCell>
        <mxCell id="WPsoNhH3rO8TYxFdxuuU-10" style="edgeStyle=orthogonalEdgeStyle;rounded=0;orthogonalLoop=1;jettySize=auto;html=1;exitX=0.5;exitY=1;exitDx=0;exitDy=0;" edge="1" parent="1" source="WPsoNhH3rO8TYxFdxuuU-1">
          <mxGeometry relative="1" as="geometry">
            <mxPoint x="350" y="420" as="targetPoint" />
          </mxGeometry>
        </mxCell>
        <mxCell id="WPsoNhH3rO8TYxFdxuuU-18" style="edgeStyle=orthogonalEdgeStyle;rounded=0;orthogonalLoop=1;jettySize=auto;html=1;exitX=1;exitY=0.5;exitDx=0;exitDy=0;" edge="1" parent="1" source="WPsoNhH3rO8TYxFdxuuU-1" target="WPsoNhH3rO8TYxFdxuuU-16">
          <mxGeometry relative="1" as="geometry" />
        </mxCell>
        <mxCell id="WPsoNhH3rO8TYxFdxuuU-1" value="Login" style="rounded=1;whiteSpace=wrap;html=1;" vertex="1" parent="1">
          <mxGeometry x="290" y="260" width="120" height="60" as="geometry" />
        </mxCell>
        <mxCell id="WPsoNhH3rO8TYxFdxuuU-8" style="edgeStyle=orthogonalEdgeStyle;rounded=0;orthogonalLoop=1;jettySize=auto;html=1;exitX=1;exitY=0.5;exitDx=0;exitDy=0;entryX=0;entryY=0.5;entryDx=0;entryDy=0;" edge="1" parent="1" source="WPsoNhH3rO8TYxFdxuuU-2" target="WPsoNhH3rO8TYxFdxuuU-1">
          <mxGeometry relative="1" as="geometry" />
        </mxCell>
        <mxCell id="WPsoNhH3rO8TYxFdxuuU-2" value="Register" style="rounded=1;whiteSpace=wrap;html=1;" vertex="1" parent="1">
          <mxGeometry x="40" y="260" width="120" height="60" as="geometry" />
        </mxCell>
        <mxCell id="WPsoNhH3rO8TYxFdxuuU-11" style="edgeStyle=orthogonalEdgeStyle;rounded=0;orthogonalLoop=1;jettySize=auto;html=1;exitX=0.5;exitY=1;exitDx=0;exitDy=0;entryX=0.75;entryY=0;entryDx=0;entryDy=0;" edge="1" parent="1" source="WPsoNhH3rO8TYxFdxuuU-6" target="WPsoNhH3rO8TYxFdxuuU-1">
          <mxGeometry relative="1" as="geometry" />
        </mxCell>
        <mxCell id="WPsoNhH3rO8TYxFdxuuU-6" value="Home" style="rounded=1;whiteSpace=wrap;html=1;" vertex="1" parent="1">
          <mxGeometry x="180" y="120" width="120" height="60" as="geometry" />
        </mxCell>
        <mxCell id="WPsoNhH3rO8TYxFdxuuU-13" style="edgeStyle=orthogonalEdgeStyle;rounded=0;orthogonalLoop=1;jettySize=auto;html=1;exitX=0;exitY=0.5;exitDx=0;exitDy=0;entryX=0.75;entryY=0;entryDx=0;entryDy=0;" edge="1" parent="1" source="WPsoNhH3rO8TYxFdxuuU-6">
          <mxGeometry relative="1" as="geometry">
            <mxPoint y="-170" as="sourcePoint" />
            <mxPoint x="70" y="260" as="targetPoint" />
          </mxGeometry>
        </mxCell>
        <mxCell id="WPsoNhH3rO8TYxFdxuuU-19" style="edgeStyle=orthogonalEdgeStyle;rounded=0;orthogonalLoop=1;jettySize=auto;html=1;exitX=1;exitY=0.5;exitDx=0;exitDy=0;entryX=0;entryY=0.5;entryDx=0;entryDy=0;" edge="1" parent="1" source="WPsoNhH3rO8TYxFdxuuU-14" target="WPsoNhH3rO8TYxFdxuuU-16">
          <mxGeometry relative="1" as="geometry" />
        </mxCell>
        <mxCell id="WPsoNhH3rO8TYxFdxuuU-14" value="First time login page" style="rounded=1;whiteSpace=wrap;html=1;" vertex="1" parent="1">
          <mxGeometry x="294" y="420" width="120" height="60" as="geometry" />
        </mxCell>
        <mxCell id="WPsoNhH3rO8TYxFdxuuU-16" value="Chat page" style="rounded=1;whiteSpace=wrap;html=1;" vertex="1" parent="1">
          <mxGeometry x="500" y="420" width="120" height="60" as="geometry" />
        </mxCell>
      </root>
    </mxGraphModel>
  </diagram>
</mxfile>
